<svg width="10" height="10" viewBox="0 0 10 10" fill="none" xmlns="http://www.w3.org/2000/svg">
<path fill-rule="evenodd" clip-rule="evenodd" d="M5 0C2.24167 0 0 2.24167 0 5C0 7.75833 2.24167 10 5 10C7.75833 10 10 7.75833 10 5C10 2.24167 7.75833 0 5 0ZM7.86657 4.11657L4.9499 7.03324C4.8499 7.13324 4.71657 7.18324 4.58324 7.18324C4.4499 7.18324 4.31657 7.13324 4.21657 7.03324L2.5499 5.36657C2.3499 5.16657 2.3499 4.83324 2.5499 4.63324C2.7499 4.43324 3.08324 4.43324 3.28324 4.63324L4.58324 5.93324L7.13324 3.38324C7.33324 3.18324 7.66657 3.18324 7.86657 3.38324C8.0749 3.58324 8.0749 3.91657 7.86657 4.11657Z" fill="white"/>
</svg>
