<svg width="20" height="20" viewBox="0 0 16 16" fill="none" xmlns="http://www.w3.org/2000/svg">
<path d="M8.40002 2.9C7.51044 2.91458 6.69377 3.13333 5.95002 3.55625C5.20627 3.99375 4.60836 4.59167 4.15627 5.35C3.71877 6.12292 3.50002 6.93958 3.50002 7.8C3.50002 8.66042 3.71877 9.47708 4.15627 10.25C4.60836 11.0083 5.20627 11.6062 5.95002 12.0438C6.69377 12.4667 7.51044 12.6854 8.40002 12.7C9.28961 12.6854 10.1063 12.4667 10.85 12.0438C11.5938 11.6062 12.1917 11.0083 12.6438 10.25C13.0813 9.47708 13.3 8.66042 13.3 7.8C13.3 6.93958 13.0813 6.12292 12.6438 5.35C12.1917 4.59167 11.5938 3.99375 10.85 3.55625C10.1063 3.13333 9.28961 2.91458 8.40002 2.9ZM8.40002 13.4C7.37919 13.3854 6.44586 13.1375 5.60002 12.6563C4.75419 12.1604 4.06877 11.475 3.54377 10.6C3.04794 9.71042 2.80002 8.77708 2.80002 7.8C2.80002 6.82292 3.04794 5.88958 3.54377 5C4.06877 4.125 4.75419 3.43958 5.60002 2.94375C6.44586 2.4625 7.37919 2.21458 8.40002 2.2C9.42086 2.21458 10.3542 2.4625 11.2 2.94375C12.0459 3.43958 12.7313 4.125 13.2563 5C13.7521 5.88958 14 6.82292 14 7.8C14 8.77708 13.7521 9.71042 13.2563 10.6C12.7313 11.475 12.0459 12.1604 11.2 12.6563C10.3542 13.1375 9.42086 13.3854 8.40002 13.4ZM6.7594 6.15937C6.91982 6.01354 7.08023 6.01354 7.24065 6.15937L8.40002 7.29687L9.5594 6.15937C9.71982 6.01354 9.88023 6.01354 10.0406 6.15937C10.1865 6.31979 10.1865 6.48021 10.0406 6.64062L8.90315 7.8L10.0406 8.95937C10.1865 9.11979 10.1865 9.28021 10.0406 9.44062C9.88023 9.58646 9.71982 9.58646 9.5594 9.44062L8.40002 8.30312L7.24065 9.44062C7.08023 9.58646 6.91982 9.58646 6.7594 9.44062C6.61357 9.28021 6.61357 9.11979 6.7594 8.95937L7.8969 7.8L6.7594 6.64062C6.61357 6.48021 6.61357 6.31979 6.7594 6.15937Z" fill="white"/>
</svg>

