<svg width="79" height="26" viewBox="0 0 79 26" fill="none" xmlns="http://www.w3.org/2000/svg">
<g clip-path="url(#clip0_6113_13308)">
<path d="M17.73 18.71C17.963 19.281 18.213 19.71 18.482 19.996C18.768 20.264 19.045 20.406 19.313 20.425V20.961C17.6864 20.9016 16.0587 20.8749 14.431 20.881C12.393 20.881 10.891 20.907 9.925 20.961V20.425C10.605 20.389 11.087 20.309 11.373 20.183C11.659 20.041 11.803 19.799 11.803 19.46C11.803 19.138 11.695 18.71 11.48 18.173L9.898 13.777H4.48L4.024 14.984C3.434 16.502 3.138 17.664 3.138 18.468C3.138 19.201 3.344 19.701 3.755 19.969C4.167 20.237 4.775 20.389 5.579 20.425V20.961C4.4083 20.9113 3.23674 20.8846 2.065 20.881C1.225 20.881 0.536 20.907 0 20.961V20.425C0.447 20.353 0.867 20.076 1.26 19.594C1.654 19.111 2.056 18.343 2.468 17.289L8.423 1.984C8.89604 2.01562 9.36992 2.0333 9.844 2.037C10.202 2.037 10.667 2.019 11.239 1.984L17.73 18.71ZM9.71 13.24L7.27 6.54L4.694 13.24H9.71ZM25.332 6.674C26.029 6.674 26.682 6.754 27.29 6.915C27.916 7.058 28.39 7.219 28.712 7.398C28.908 7.505 29.069 7.558 29.195 7.558C29.57 7.558 29.794 7.273 29.865 6.701H30.402C30.33 7.631 30.294 9.238 30.294 11.526H29.758C29.615 10.346 29.275 9.355 28.738 8.551C28.22 7.729 27.46 7.318 26.458 7.318C26.011 7.318 25.636 7.452 25.332 7.72C25.028 7.988 24.876 8.354 24.876 8.819C24.876 9.409 25.073 9.935 25.466 10.4C25.859 10.847 26.476 11.4 27.316 12.062C27.353 12.08 27.612 12.285 28.095 12.678C29.096 13.5 29.829 14.233 30.295 14.876C30.759 15.502 30.992 16.279 30.992 17.208C30.9954 17.9837 30.7403 18.7384 30.267 19.353C29.785 19.978 29.123 20.469 28.282 20.827C27.46 21.167 26.557 21.337 25.573 21.337C24.447 21.337 23.526 21.113 22.81 20.666C22.5679 20.5333 22.3174 20.4167 22.06 20.317C21.8711 20.247 21.6714 20.2108 21.47 20.21C21.13 20.21 20.88 20.523 20.718 21.148H20.182C20.253 20.13 20.289 18.343 20.289 15.788H20.826C20.986 17.253 21.38 18.432 22.006 19.326C22.632 20.219 23.418 20.666 24.366 20.666C24.813 20.666 25.18 20.541 25.466 20.291C25.77 20.041 25.922 19.674 25.922 19.191C25.922 18.691 25.815 18.245 25.6 17.851C25.4078 17.4643 25.1542 17.1114 24.849 16.806C24.563 16.484 24.089 16.029 23.427 15.439C22.8397 14.901 22.2675 14.3468 21.711 13.777C21.3076 13.3526 20.9644 12.8748 20.691 12.357C20.4195 11.788 20.282 11.1644 20.289 10.534C20.289 9.766 20.521 9.087 20.986 8.497C21.451 7.907 22.068 7.46 22.837 7.157C23.628 6.83084 24.4764 6.6666 25.332 6.674ZM38.601 8.685C39.406 7.345 40.827 6.675 42.866 6.675C44.296 6.675 45.306 7.032 45.897 7.746C46.165 8.068 46.362 8.506 46.487 9.06C46.612 9.596 46.675 10.31 46.675 11.204V18.468C46.675 19.201 46.782 19.71 46.997 19.996C47.229 20.264 47.623 20.398 48.177 20.398V20.961C46.246 20.889 44.994 20.854 44.422 20.854C43.814 20.854 42.544 20.889 40.612 20.961V20.398C41.078 20.398 41.4 20.264 41.578 19.996C41.758 19.71 41.847 19.201 41.847 18.468V9.757C41.847 9.185 41.739 8.765 41.525 8.497C41.328 8.211 40.997 8.068 40.532 8.068C40.014 8.068 39.558 8.256 39.164 8.631C38.789 8.988 38.601 9.444 38.601 9.998V18.468C38.601 19.201 38.691 19.71 38.869 19.996C39.048 20.264 39.369 20.398 39.835 20.398V20.961C38.047 20.889 36.866 20.854 36.295 20.854C35.686 20.854 34.345 20.889 32.271 20.961V20.398C32.825 20.398 33.209 20.264 33.424 19.996C33.657 19.71 33.773 19.201 33.773 18.468V3.216C33.773 2.394 33.656 1.796 33.424 1.421C33.209 1.045 32.824 0.858 32.271 0.858V0.295C32.825 0.348 33.379 0.375 33.934 0.375C35.794 0.375 37.349 0.25 38.6 0V8.685H38.601ZM59.07 6.674C60.464 6.674 61.59 7.246 62.45 8.39C63.307 9.533 63.737 11.204 63.737 13.402C63.737 16.243 63.164 18.28 62.02 19.513C60.875 20.728 59.364 21.336 57.487 21.336C56.914 21.336 56.432 21.318 56.038 21.283C55.677 21.2507 55.3238 21.1598 54.992 21.014C54.3363 20.7472 53.6349 20.6106 52.927 20.612C52.39 20.612 51.889 20.684 51.425 20.827C50.96 20.97 50.602 21.157 50.352 21.39L49.976 21.122C50.101 20.746 50.164 20.255 50.164 19.647V3.217C50.164 2.394 50.048 1.796 49.815 1.421C49.601 1.045 49.216 0.858 48.662 0.858V0.295C49.216 0.348 49.77 0.375 50.325 0.375C52.185 0.375 53.74 0.25 54.992 0V8.685C55.815 7.345 57.174 6.675 59.069 6.675L59.07 6.674ZM56.252 20.8C57.897 20.8 58.72 18.54 58.72 14.019C58.72 11.821 58.559 10.284 58.237 9.409C57.915 8.515 57.477 8.068 56.922 8.068C56.404 8.068 55.948 8.256 55.554 8.631C55.179 8.988 54.991 9.444 54.991 9.998V20.478C55.402 20.693 55.824 20.8 56.252 20.8ZM76.182 7.157C77.202 7.157 77.89 7.121 78.247 7.049V7.612C77.872 7.737 77.523 7.997 77.201 8.39C76.897 8.783 76.611 9.39 76.343 10.212L72.99 20.183L71.863 23.427C71.541 24.356 71.148 24.999 70.683 25.357C70.129 25.786 69.297 26 68.188 26C67.315 26.0054 66.4556 25.7838 65.694 25.357C64.924 24.946 64.54 24.32 64.54 23.48C64.54 22.855 64.782 22.355 65.265 21.98C65.747 21.604 66.382 21.416 67.169 21.416C67.92 21.416 68.51 21.586 68.939 21.926C69.369 22.266 69.583 22.756 69.583 23.4C69.583 23.829 69.431 24.23 69.127 24.606C68.841 24.999 68.412 25.286 67.84 25.464C68.018 25.5 68.323 25.517 68.752 25.517C69.986 25.517 70.835 24.803 71.3 23.373L71.434 22.917L65.184 9.113C64.916 8.506 64.648 8.103 64.379 7.907C64.129 7.711 63.879 7.612 63.629 7.612V7.05C65.059 7.158 66.516 7.211 68.001 7.211C69.163 7.211 70.459 7.158 71.89 7.051V7.613C71.371 7.613 70.97 7.649 70.683 7.721C70.415 7.792 70.281 7.953 70.281 8.203C70.281 8.346 70.316 8.489 70.388 8.632L73.688 16.486L74.814 13.055C75.154 12.018 75.324 11.107 75.324 10.321C75.324 9.481 75.144 8.828 74.787 8.364C74.6213 8.14048 74.4074 7.95705 74.1613 7.82724C73.9152 7.69743 73.6431 7.62455 73.365 7.614V7.05C74.027 7.122 74.965 7.157 76.182 7.157Z" fill="#4939CE" style="fill:#4939CE;fill:color(display-p3 0.2863 0.2235 0.8078);fill-opacity:1;"/>
</g>
<defs>
<clipPath id="clip0_6113_13308">
<rect width="79" height="26" fill="white" style="fill:white;fill:white;fill-opacity:1;"/>
</clipPath>
</defs>
</svg>
