<svg width="32" height="32" viewBox="0 0 32 32" fill="none" xmlns="http://www.w3.org/2000/svg">
<path fill-rule="evenodd" clip-rule="evenodd" d="M9.5 10C9.22386 10 9 9.77614 9 9.5C9 9.22386 9.22386 9 9.5 9H22.5C22.7761 9 23 9.22386 23 9.5C23 9.77614 22.7761 10 22.5 10H9.5ZM15.5 14C15.2239 14 15 13.7761 15 13.5C15 13.2239 15.2239 13 15.5 13H22.5C22.7761 13 23 13.2239 23 13.5C23 13.7761 22.7761 14 22.5 14H15.5ZM15.5 18C15.2239 18 15 17.7761 15 17.5C15 17.2239 15.2239 17 15.5 17H22.5C22.7761 17 23 17.2239 23 17.5C23 17.7761 22.7761 18 22.5 18H15.5ZM9.5 22C9.22386 22 9 21.7761 9 21.5C9 21.2239 9.22386 21 9.5 21H22.5C22.7761 21 23 21.2239 23 21.5C23 21.7761 22.7761 22 22.5 22H9.5ZM9.75355 15.4536C9.74934 15.4578 9.74887 15.4451 9.75678 15.4503L9.75355 15.4536ZM12.3602 18.1532C12.5517 18.3521 12.5457 18.6686 12.3468 18.8602C12.1479 19.0517 11.8314 19.0457 11.6398 18.8468L9.04645 16.1536C8.65118 15.7583 8.65118 15.1417 9.04645 14.7464L11.6464 12.1464C11.8417 11.9512 12.1583 11.9512 12.3536 12.1464C12.5488 12.3417 12.5488 12.6583 12.3536 12.8536L9.75678 15.4503C9.75777 15.451 12.3602 18.1532 12.3602 18.1532Z" fill="#68737D"/>
</svg>