<svg xmlns="http://www.w3.org/2000/svg" width="32" height="32" viewBox="0 0 32 32" fill="none">
<path fill-rule="evenodd" clip-rule="evenodd" d="M9.5 10C9.22386 10 9 9.77614 9 9.5C9 9.22386 9.22386 9 9.5 9H22.5C22.7761 9 23 9.22386 23 9.5C23 9.77614 22.7761 10 22.5 10H9.5ZM15.5 14C15.2239 14 15 13.7761 15 13.5C15 13.2239 15.2239 13 15.5 13H22.5C22.7761 13 23 13.2239 23 13.5C23 13.7761 22.7761 14 22.5 14H15.5ZM15.5 18C15.2239 18 15 17.7761 15 17.5C15 17.2239 15.2239 17 15.5 17H22.5C22.7761 17 23 17.2239 23 17.5C23 17.7761 22.7761 18 22.5 18H15.5ZM9.5 22C9.22386 22 9 21.7761 9 21.5C9 21.2239 9.22386 21 9.5 21H22.5C22.7761 21 23 21.2239 23 21.5C23 21.7761 22.7761 22 22.5 22H9.5ZM9.14645 12.8536C8.95118 12.6583 8.95118 12.3417 9.14645 12.1464C9.34171 11.9512 9.65829 11.9512 9.85355 12.1464L12.4536 14.7464C12.8488 15.1417 12.8488 15.7583 12.4536 16.1536L9.85355 18.7536C9.65829 18.9488 9.34171 18.9488 9.14645 18.7536C8.95118 18.5583 8.95118 18.2417 9.14645 18.0464L11.7429 15.45L9.14645 12.8536Z" fill="#68737D"/>
</svg>