<svg xmlns="http://www.w3.org/2000/svg" width="32" height="32" viewBox="0 0 32 32" fill="none">
<path fill-rule="evenodd" clip-rule="evenodd" d="M13.5 11C13.2239 11 13 10.7761 13 10.5C13 10.2239 13.2239 10 13.5 10H22.5C22.7761 10 23 10.2239 23 10.5C23 10.7761 22.7761 11 22.5 11H13.5ZM13.5 16C13.2239 16 13 15.7761 13 15.5C13 15.2239 13.2239 15 13.5 15H22.5C22.7761 15 23 15.2239 23 15.5C23 15.7761 22.7761 16 22.5 16H13.5ZM13.5 21C13.2239 21 13 20.7761 13 20.5C13 20.2239 13.2239 20 13.5 20H22.5C22.7761 20 23 20.2239 23 20.5C23 20.7761 22.7761 21 22.5 21H13.5ZM9.60999 12.8C9.40999 12.8 9.27999 12.67 9.27999 12.46V12.32C9.27999 12.12 9.40999 11.99 9.60999 11.99H10.05V10.25L9.96999 10.33C9.88999 10.4 9.81999 10.43 9.73999 10.43C9.67999 10.43 9.58999 10.41 9.49999 10.31L9.39999 10.22C9.33825 10.155 9.30265 10.0696 9.29999 9.98C9.29999 9.92 9.31999 9.84 9.40999 9.75L10.04 9.14C10.15 9.04 10.26 9 10.39 9H10.6C10.8 9 10.93 9.13 10.93 9.34V12H11.36C11.57 12 11.69 12.13 11.69 12.33V12.47C11.69 12.68 11.56 12.81 11.36 12.81H9.60999V12.8ZM9.60999 17.85C9.39999 17.85 9.25999 17.72 9.25999 17.52C9.25999 16.62 9.84999 16.2 10.33 15.87C10.65 15.65 10.92 15.46 10.92 15.22C10.92 14.95 10.7 14.85 10.51 14.85C10.29 14.85 10.14 15 10.08 15.07C9.97999 15.17 9.88999 15.21 9.79999 15.21C9.72999 15.21 9.65999 15.18 9.59999 15.13L9.46999 15.03C9.30999 14.91 9.27999 14.74 9.38999 14.58C9.58999 14.31 9.95999 13.99 10.56 13.99C11.31 13.99 11.84 14.47 11.84 15.16C11.84 15.88 11.27 16.25 10.82 16.55C10.56 16.73 10.34 16.88 10.25 17.05H11.55C11.76 17.05 11.89 17.18 11.89 17.38V17.52C11.89 17.73 11.76 17.85 11.55 17.85H9.60999ZM10.47 22.85C9.96999 22.85 9.59999 22.65 9.36999 22.48C9.20999 22.36 9.18999 22.18 9.29999 22.02L9.39999 21.87C9.47999 21.74 9.57999 21.72 9.64999 21.72C9.71999 21.72 9.77999 21.74 9.85999 21.79C9.98999 21.88 10.18 22 10.43 22C10.73 22 10.94 21.83 10.94 21.59C10.94 21.2 10.45 21.16 10.31 21.16C10.07 21.16 9.95999 21.09 9.88999 20.95C9.79999 20.77 9.82999 20.63 9.92999 20.5C9.92999 20.5 10.51 19.82 10.52 19.8H9.64999C9.44999 19.8 9.31999 19.67 9.31999 19.47V19.33C9.31999 19.12 9.44999 19 9.64999 19H11.4C11.61 19 11.74 19.13 11.74 19.33C11.74 19.53 11.7 19.63 11.61 19.73L10.98 20.46C11.44 20.6 11.84 20.97 11.84 21.57C11.85 22.2 11.37 22.85 10.47 22.85Z" fill="#68737D"/>
</svg>