<svg width="12" height="11" viewBox="0 0 12 11" fill="none" xmlns="http://www.w3.org/2000/svg">
<path d="M0.867968 1.90625C0.751302 1.62917 0.795052 1.36667 0.999218 1.11875C1.21797 0.899999 1.48047 0.848958 1.78672 0.965624L11.5867 5.16562C11.8492 5.28229 11.9878 5.49375 12.0023 5.8C11.9878 6.09167 11.8492 6.30312 11.5867 6.43437L1.78672 10.6344C1.48047 10.751 1.21797 10.7 0.999218 10.4813C0.795052 10.2333 0.751302 9.97083 0.867968 9.69375L2.81484 5.8L0.867968 1.90625ZM3.42734 6.15L1.50234 10L10.493 6.15H3.42734ZM10.493 5.45L1.50234 1.6L3.42734 5.45H10.493Z" fill="white" style="fill:white;fill:white;fill-opacity:1;"/>
</svg>