
<svg width="12" height="12" viewBox="0 0 12 12" fill="none" xmlns="http://www.w3.org/2000/svg">
<path d="M2.25 2.25V3C2.25 3.21875 2.17969 3.39844 2.03906 3.53906C1.89844 3.67969 1.71875 3.75 1.5 3.75C1.28125 3.75 1.10156 3.67969 0.960938 3.53906C0.820312 3.39844 0.75 3.21875 0.75 3V1.875C0.765625 1.5625 0.875 1.29687 1.07812 1.07812C1.29688 0.875 1.5625 0.765625 1.875 0.75H6H10.125C10.4375 0.765625 10.7031 0.875 10.9219 1.07812C11.125 1.29687 11.2344 1.5625 11.25 1.875V3C11.25 3.21875 11.1797 3.39844 11.0391 3.53906C10.8984 3.67969 10.7188 3.75 10.5 3.75C10.2812 3.75 10.1016 3.67969 9.96094 3.53906C9.82031 3.39844 9.75 3.21875 9.75 3V2.25H6.75V9.75H7.875C8.09375 9.75 8.27344 9.82031 8.41406 9.96094C8.55469 10.1016 8.625 10.2812 8.625 10.5C8.625 10.7188 8.55469 10.8984 8.41406 11.0391C8.27344 11.1797 8.09375 11.25 7.875 11.25H4.125C3.90625 11.25 3.72656 11.1797 3.58594 11.0391C3.44531 10.8984 3.375 10.7188 3.375 10.5C3.375 10.2812 3.44531 10.1016 3.58594 9.96094C3.72656 9.82031 3.90625 9.75 4.125 9.75H5.25V2.25H2.25Z" fill="white" style="fill:white;fill:white;fill-opacity:1;"/>
</svg>
