<svg width="20" height="20" viewBox="0 0 20 20" fill="none" xmlns="http://www.w3.org/2000/svg">
<path d="M3.5 8C3.1875 7.97917 3.02083 7.8125 3 7.5V3.5C3.02083 3.1875 3.1875 3.02083 3.5 3C3.8125 3.02083 3.97917 3.1875 4 3.5V6.40625C4.625 5.36458 5.45833 4.54167 6.5 3.9375C7.54167 3.33333 8.70833 3.02083 10 3C11.3125 3.02083 12.4896 3.34375 13.5312 3.96875C14.5938 4.57292 15.4271 5.40625 16.0312 6.46875C16.6562 7.51042 16.9792 8.6875 17 10C16.9792 11.3125 16.6562 12.4896 16.0312 13.5312C15.4271 14.5938 14.5938 15.4271 13.5312 16.0312C12.4896 16.6562 11.3125 16.9792 10 17C8.72917 16.9792 7.58333 16.6771 6.5625 16.0938C5.54167 15.5104 4.70833 14.7188 4.0625 13.7188C3.97917 13.5521 3.97917 13.3958 4.0625 13.25C4.14583 13.0833 4.29167 13 4.5 13C4.6875 13 4.84375 13.0833 4.96875 13.25C5.51042 14.0833 6.21875 14.75 7.09375 15.25C7.96875 15.7292 8.9375 15.9792 10 16C11.7083 15.9583 13.125 15.375 14.25 14.25C15.375 13.125 15.9583 11.7083 16 10C15.9583 8.29167 15.375 6.875 14.25 5.75C13.125 4.625 11.7083 4.04167 10 4C8.875 4.02083 7.86458 4.29167 6.96875 4.8125C6.05208 5.35417 5.33333 6.08333 4.8125 7H7.5C7.8125 7.02083 7.97917 7.1875 8 7.5C7.97917 7.8125 7.8125 7.97917 7.5 8H3.5Z" fill="#C2C8CC"/>
</svg>
