<svg width="433" height="557" viewBox="0 0 433 557" fill="none" xmlns="http://www.w3.org/2000/svg">
<rect width="433" height="557" fill="#038153" fill-opacity="0.3"/>
<rect x="202" y="264" width="40" height="40" rx="20" fill="white"/>
<path fill-rule="evenodd" clip-rule="evenodd" d="M222 264C210.967 264 202 272.967 202 284C202 295.033 210.967 304 222 304C233.033 304 242 295.033 242 284C242 272.967 233.033 264 222 264ZM233.47 280.467L221.803 292.133C221.403 292.533 220.87 292.733 220.336 292.733C219.803 292.733 219.27 292.533 218.87 292.133L212.203 285.467C211.403 284.667 211.403 283.333 212.203 282.533C213.003 281.733 214.336 281.733 215.136 282.533L220.336 287.733L230.536 277.533C231.336 276.733 232.67 276.733 233.47 277.533C234.303 278.333 234.303 279.667 233.47 280.467V280.467Z" fill="#228F67"/>
</svg>