<svg width="20" height="18" viewBox="0 0 20 18" fill="none" xmlns="http://www.w3.org/2000/svg">
<g clip-path="url(#clip0_6775_227772)">
<path d="M11.3125 8.99906L13.2622 11.2277L15.8842 12.9031L16.3403 9.01313L15.8842 5.21094L13.212 6.68267L11.3125 8.99906Z" fill="#00832D"/>
<path d="M0 12.5458V15.8606C0 16.6175 0.61431 17.2319 1.37135 17.2319H4.68616L5.37256 14.7274L4.68616 12.5458L2.41198 11.8594L0 12.5458Z" fill="#0066DA"/>
<path d="M4.68616 0.773438L0 5.4596L2.41213 6.14441L4.68616 5.4596L5.36009 3.3077L4.68616 0.773438Z" fill="#E94235"/>
<path d="M0 12.5465H4.68616V5.46094H0V12.5465Z" fill="#2684FC"/>
<path d="M18.8802 2.75891L15.8867 5.21484V12.9068L18.8927 15.3724C19.3427 15.7248 20.0009 15.4035 20.0009 14.8316V3.28865C20.0009 2.71031 19.327 2.39061 18.8802 2.75891Z" fill="#00AC47"/>
<path d="M11.3154 9V12.542H4.6875V17.2281H14.5157C15.2728 17.2281 15.8871 16.6137 15.8871 15.8568V12.904L11.3154 9Z" fill="#00AC47"/>
<path d="M14.5157 0.773438H4.6875V5.4596H11.3154V9.00157L15.8871 5.21344V2.14479C15.8871 1.38775 15.2728 0.773438 14.5157 0.773438Z" fill="#FFBA00"/>
</g>
<defs>
<clipPath id="clip0_6775_227772">
<rect width="20" height="16.4563" fill="white" transform="translate(0 0.773438)"/>
</clipPath>
</defs>
</svg>