<svg width="12" height="12" viewBox="0 0 12 12" fill="none" xmlns="http://www.w3.org/2000/svg">
<path fill-rule="evenodd" clip-rule="evenodd" d="M11.625 2.25C11.8091 2.25 11.9622 2.38266 11.994 2.55759L12 2.625V5.625C12 5.83211 11.8321 6 11.625 6C11.4409 6 11.2878 5.86734 11.256 5.69241L11.25 5.625V3.5295L7.39017 7.39016C7.25999 7.52034 7.05792 7.5348 6.91177 7.43356L6.85983 7.39016L4.875 5.40525L0.640165 9.64017C0.50999 9.77034 0.307922 9.7848 0.161771 9.68356L0.109835 9.64017C-0.0203398 9.50999 -0.0348037 9.30792 0.0664434 9.16177L0.109835 9.10983L4.60984 4.60984C4.74001 4.47966 4.94208 4.4652 5.08823 4.56644L5.14016 4.60984L7.125 6.59475L10.719 3H8.625C8.4409 3 8.28779 2.86734 8.25604 2.69241L8.25 2.625C8.25 2.44091 8.38266 2.28779 8.55759 2.25604L8.625 2.25H11.625Z" fill="white" style="fill:white;fill:white;fill-opacity:1;"/>
</svg>
