
<svg width="40" height="40" viewBox="0 0 40 40" fill="none" xmlns="http://www.w3.org/2000/svg">
<path fill-rule="evenodd" clip-rule="evenodd" d="M20 0C8.96667 0 0 8.96667 0 20C0 31.0333 8.96667 40 20 40C31.0333 40 40 31.0333 40 20C40 8.96667 31.0333 0 20 0ZM31.4663 16.4695L19.7996 28.1362C19.3996 28.5362 18.8663 28.7362 18.3329 28.7362C17.7996 28.7362 17.2663 28.5362 16.8663 28.1362L10.1996 21.4695C9.39961 20.6695 9.39961 19.3362 10.1996 18.5362C10.9996 17.7362 12.3329 17.7362 13.1329 18.5362L18.3329 23.7362L28.5329 13.5362C29.3329 12.7362 30.6663 12.7362 31.4663 13.5362C32.2996 14.3362 32.2996 15.6695 31.4663 16.4695Z" fill="#228F67"/>
</svg>
