
<svg width="12" height="12" viewBox="0 0 12 12" fill="none" xmlns="http://www.w3.org/2000/svg">
<g id="Plus - 12px icon">
<path id="Icon" fill-rule="evenodd" clip-rule="evenodd" d="M6 1C5.69318 1 5.44444 1.24873 5.44444 1.55556V5.44444H1.55556C1.24873 5.44444 1 5.69318 1 6C1 6.30683 1.24873 6.55556 1.55556 6.55556H5.44444V10.4444C5.44444 10.7513 5.69318 11 6 11C6.30683 11 6.55556 10.7513 6.55556 10.4444V6.55556H10.4444C10.7513 6.55556 11 6.30683 11 6C11 5.69318 10.7513 5.44444 10.4444 5.44444H6.55556V1.55556C6.55556 1.24873 6.30683 1 6 1Z" fill="#1F73B7" style="fill:#1F73B7;fill:color(display-p3 0.1216 0.4510 0.7176);fill-opacity:1;"/>
</g>
</svg>
