<svg width="24px" height="24px" viewBox="0 0 32 32" xmlns="http://www.w3.org/2000/svg"><path d="M21.5 8C21.2239 8 21 8.22386 21 8.5V11.093C19.6801 9.77492 17.9077 9 16 9C12.1239 9 9 12.1239 9 16C9 19.8761 12.1239 23 16 23C18.1703 23 20.1394 22.0012 21.4904 20.3123C21.6629 20.0967 21.628 19.7821 21.4123 19.6096C21.1967 19.4371 20.8821 19.472 20.7096 19.6877C19.5436 21.1451 17.8583 22 16 22C12.6761 22 10 19.3239 10 16C10 12.6761 12.6761 10 16 10C17.7282 10 19.3296 10.743 20.4847 12H17.5C17.2239 12 17 12.2239 17 12.5C17 12.7761 17.2239 13 17.5 13H21C21.5761 13 22 12.5761 22 12V8.5C22 8.22386 21.7761 8 21.5 8Z" fill="currentColor" clip-rule="evenodd" fill-rule="evenodd"></path></svg>