<svg width="20" height="20" viewBox="0 0 20 20" fill="none" xmlns="http://www.w3.org/2000/svg">
<path d="M16.5 8H12.5C12.1875 7.97917 12.0208 7.8125 12 7.5C12.0208 7.1875 12.1875 7.02083 12.5 7H15.1875C14.6667 6.08333 13.9479 5.35417 13.0312 4.8125C12.1354 4.29167 11.125 4.02083 10 4C8.29167 4.04167 6.875 4.625 5.75 5.75C4.625 6.875 4.04167 8.29167 4 10C4.04167 11.7083 4.625 13.125 5.75 14.25C6.875 15.375 8.29167 15.9583 10 16C11.0625 15.9792 12.0312 15.7292 12.9062 15.25C13.7812 14.75 14.4896 14.0833 15.0312 13.25C15.1562 13.0833 15.3125 13 15.5 13C15.7083 13 15.8542 13.0833 15.9375 13.25C16.0208 13.3958 16.0208 13.5521 15.9375 13.7188C15.2917 14.7188 14.4583 15.5104 13.4375 16.0938C12.4167 16.6771 11.2708 16.9792 10 17C8.6875 16.9792 7.51042 16.6562 6.46875 16.0312C5.40625 15.4271 4.57292 14.5938 3.96875 13.5312C3.34375 12.4896 3.02083 11.3125 3 10C3.02083 8.6875 3.34375 7.51042 3.96875 6.46875C4.57292 5.40625 5.40625 4.57292 6.46875 3.96875C7.51042 3.34375 8.6875 3.02083 10 3C11.2917 3.02083 12.4583 3.33333 13.5 3.9375C14.5417 4.54167 15.375 5.36458 16 6.40625V3.5C16.0208 3.1875 16.1875 3.02083 16.5 3C16.8125 3.02083 16.9792 3.1875 17 3.5V7.5C16.9792 7.8125 16.8125 7.97917 16.5 8Z" fill="#49545C"/>
</svg>
