<svg width="24px" height="24px" viewBox="0 0 32 32" xmlns="http://www.w3.org/2000/svg"><path d="M10.5 8C10.7761 8 11 8.22386 11 8.5V11.093C12.3199 9.77492 14.0923 9 16 9C19.8761 9 23 12.1239 23 16C23 19.8761 19.8761 23 16 23C13.8297 23 11.8606 22.0012 10.5096 20.3123C10.3371 20.0967 10.372 19.7821 10.5877 19.6096C10.8033 19.4371 11.1179 19.472 11.2904 19.6877C12.4564 21.1451 14.1417 22 16 22C19.3239 22 22 19.3239 22 16C22 12.6761 19.3239 10 16 10C14.2718 10 12.6704 10.743 11.5153 12H14.5C14.7761 12 15 12.2239 15 12.5C15 12.7761 14.7761 13 14.5 13H11C10.4239 13 10 12.5761 10 12V8.5C10 8.22386 10.2239 8 10.5 8Z" fill="currentColor" clip-rule="evenodd" fill-rule="evenodd"></path></svg>