<svg width="16" height="16" viewBox="0 0 16 16" fill="none" xmlns="http://www.w3.org/2000/svg">
<g id="Start icon - 16px">
<path id="Icon" fill-rule="evenodd" clip-rule="evenodd" d="M5.5286 11.1387C5.78894 11.3991 6.21105 11.3991 6.4714 11.1387L8 9.61013V14.0007C8 14.3688 8.29848 14.6673 8.66667 14.6673C9.03486 14.6673 9.33333 14.3688 9.33333 14.0007V9.70018L10.8764 11.1528C11.1445 11.4051 11.5665 11.3923 11.8188 11.1242C12.0711 10.8561 12.0584 10.4342 11.7902 10.1819L9.52358 8.04852C9.01105 7.53556 8.18894 7.53556 7.66193 8.06258L5.5286 10.1959C5.26825 10.4563 5.26825 10.8784 5.5286 11.1387ZM16 9.73398C16 12.3586 13.9867 14.5124 11.3725 14.6662C11.0049 14.6878 10.6894 14.4074 10.6678 14.0398C10.6462 13.6722 10.9266 13.3568 11.2942 13.3351C13.2011 13.223 14.6667 11.6551 14.6667 9.73398C14.6667 7.70217 12.9651 6.00065 10.9333 6.00065H9.99439L9.88147 5.47367C9.54069 3.8834 8.05437 2.66732 6.4 2.66732C4.36819 2.66732 2.66667 4.36884 2.66667 6.40065C2.66667 6.78593 2.75327 7.21894 2.89912 7.6565L3.07195 8.17499L2.59743 8.44615C1.83974 8.87911 1.33333 9.74298 1.33333 10.6673C1.33333 12.1658 2.50152 13.334 4 13.334H6C6.36819 13.334 6.66667 13.6325 6.66667 14.0007C6.66667 14.3688 6.36819 14.6673 6 14.6673H4C1.76514 14.6673 0 12.9022 0 10.6673C0 9.44924 0.574709 8.30675 1.49074 7.58819C1.39049 7.1884 1.33333 6.78976 1.33333 6.40065C1.33333 3.63246 3.63181 1.33398 6.4 1.33398C8.50043 1.33398 10.382 2.73365 11.0399 4.66845C13.7603 4.72653 16 7.0014 16 9.73398Z" fill="#1F73B7" style="fill:#1F73B7;fill:color(display-p3 0.1216 0.4510 0.7176);fill-opacity:1;"/>
</g>
</svg>