<svg width="30" height="63" viewBox="0 0 30 63" fill="none" xmlns="http://www.w3.org/2000/svg">
<path d="M26.2062 18.564C26.2062 21.5813 24.9222 24.2504 22.821 26.3393C20.4864 28.6603 17.1012 29.2406 17.1012 31.2134C17.1012 33.8825 21.4202 33.0702 25.5642 37.1899C28.3074 39.9171 30 43.5146 30 47.6924C30 55.9319 23.3463 62.4887 15 62.4887C6.6537 62.4887 0 55.9319 0 47.6982C0 43.5146 1.69261 39.9171 4.4358 37.1899C8.57977 33.0702 12.8988 33.8825 12.8988 31.2134C12.8988 29.2406 9.51362 28.6603 7.17899 26.3393C5.07782 24.2504 3.79377 21.5813 3.79377 18.448C3.79377 12.4134 8.75486 7.53931 14.8249 7.53931C15.9922 7.53931 17.0428 7.71338 17.9183 7.71338C19.4942 7.71338 20.3113 7.01709 20.3113 5.91462C20.3113 5.27634 20.0195 4.464 20.0195 3.59363C20.0195 1.62079 21.7121 -0.00390625 23.7549 -0.00390625C25.7977 -0.00390625 27.4319 1.67881 27.4319 3.70968C27.4319 5.85659 25.7393 6.84301 24.4553 7.30721C23.4047 7.65536 22.5875 8.11956 22.5875 9.164C22.5875 11.1368 26.2062 13.0517 26.2062 18.564ZM25.0389 47.6982C25.0389 41.9538 20.7782 37.3118 15 37.3118C9.22179 37.3118 4.96109 41.9538 4.96109 47.6982C4.96109 53.3846 9.22179 58.0846 15 58.0846C20.7782 58.0846 25.0389 53.3788 25.0389 47.6982ZM21.5953 18.448C21.5953 14.7924 18.6187 11.7751 15 11.7751C11.3813 11.7751 8.40467 14.7924 8.40467 18.448C8.40467 22.1035 11.3813 25.1208 15 25.1208C18.6187 25.1208 21.5953 22.1035 21.5953 18.448Z" fill="#23A47F" style="fill:#23A47F;fill:color(display-p3 0.1373 0.6431 0.4980);fill-opacity:1;"/>
</svg>
