<svg width="160" height="36" viewBox="0 0 160 36" fill="none" xmlns="http://www.w3.org/2000/svg">
<g clip-path="url(#clip0_5213_22905)">
<path d="M13.5343 12.9995C13.5343 14.5608 12.8711 15.942 11.786 17.0229C10.5803 18.2239 8.83195 18.5242 8.83195 19.545C8.83195 20.9262 11.0625 20.5058 13.2027 22.6376C14.6194 24.0488 15.4936 25.9103 15.4936 28.0721C15.4936 32.3357 12.0573 35.7285 7.7468 35.7285C3.43632 35.7285 0 32.3387 0 28.0751C0 25.9133 0.874152 24.0518 2.29088 22.6406C4.43105 20.5088 6.66164 20.9292 6.66164 19.548C6.66164 18.5272 4.91334 18.2269 3.70761 17.0259C2.62246 15.945 1.95931 14.5638 1.95931 12.9425C1.95931 9.81989 4.52148 7.29779 7.65637 7.29779C8.25923 7.29779 8.80181 7.38786 9.25396 7.38786C10.0678 7.38786 10.4898 7.02756 10.4898 6.45709C10.4898 6.12681 10.3391 5.70646 10.3391 5.25608C10.3391 4.23523 11.2133 3.39453 12.2683 3.39453C13.3233 3.39453 14.1673 4.26526 14.1673 5.31613C14.1673 6.42706 13.2931 6.93749 12.63 7.17769C12.0874 7.35784 11.6654 7.59804 11.6654 8.13849C11.6654 9.15634 13.5343 10.1472 13.5343 12.9995ZM12.9314 28.0751C12.9314 25.1026 10.731 22.7006 7.7468 22.7006C4.76262 22.7006 2.56217 25.1026 2.56217 28.0751C2.56217 31.0176 4.76262 33.4496 7.7468 33.4496C10.731 33.4496 12.9314 31.0146 12.9314 28.0751ZM11.153 12.9395C11.153 11.0479 9.61568 9.48661 7.7468 9.48661C5.87792 9.48661 4.34062 11.0479 4.34062 12.9395C4.34062 14.8311 5.87792 16.3924 7.7468 16.3924C9.61568 16.3924 11.153 14.8311 11.153 12.9395Z" fill="#23A47F" style="fill:#23A47F;fill:color(display-p3 0.1373 0.6431 0.4980);fill-opacity:1;"/>
<path d="M24.3857 7.59593C25.3503 7.59593 26.0737 8.31654 26.0737 9.21729C26.0737 10.118 25.3805 10.8386 24.4159 10.8386C23.4211 10.8386 22.8786 10.2081 21.8838 10.2081C20.9193 10.2081 20.1657 10.8987 20.1657 12.0697V21.5276C20.1657 22.2482 19.593 22.8186 18.8695 22.8186C18.1762 22.8186 17.6035 22.2482 17.6035 21.5276V8.79694C17.6035 8.07634 18.1762 7.50586 18.8695 7.50586C20.1657 7.50586 19.9245 8.73689 21.2207 8.73689C22.4566 8.73689 22.9087 7.59593 24.3857 7.59593Z" fill="#23A47F" style="fill:#23A47F;fill:color(display-p3 0.1373 0.6431 0.4980);fill-opacity:1;"/>
<path d="M27.189 15.162C27.189 10.6282 30.3239 7.35547 34.6343 7.35547C38.5831 7.35547 41.718 10.2379 41.718 14.1712C41.718 15.1019 41.1151 15.7325 40.241 15.7325H30.4444C30.0224 15.7325 29.8717 15.8826 29.8717 16.2129C29.8717 16.9635 30.4746 18.3446 31.3789 19.2454C32.2832 20.1461 33.519 20.6866 35.2673 20.6866C36.5635 20.6866 37.7089 20.2062 38.5831 19.5757C38.8544 19.3655 39.1558 19.2454 39.4572 19.2454C40.0902 19.2454 40.6027 19.8159 40.6027 20.4164C40.6027 20.7767 40.4821 21.0769 40.1807 21.3471C38.9147 22.398 37.1362 22.9685 35.2071 22.9685C30.5349 22.9685 27.189 19.6057 27.189 15.162ZM37.8597 10.8384C37.0156 9.99767 35.9305 9.57732 34.6343 9.57732C33.3382 9.57732 32.1324 10.0877 31.2583 10.9585C30.565 11.6491 30.0827 12.5498 30.0827 13.1503C30.0827 13.4506 30.2636 13.5707 30.6554 13.5707H38.4927C38.8544 13.5707 39.0352 13.4506 39.0352 13.1503C39.0352 12.4297 38.4625 11.4389 37.8597 10.8384Z" fill="#23A47F" style="fill:#23A47F;fill:color(display-p3 0.1373 0.6431 0.4980);fill-opacity:1;"/>
<path d="M44.3105 15.162C44.3105 10.6282 47.4454 7.35547 51.7559 7.35547C55.7047 7.35547 58.8396 10.2379 58.8396 14.1712C58.8396 15.1019 58.2367 15.7325 57.3625 15.7325H47.566C47.144 15.7325 46.9933 15.8826 46.9933 16.2129C46.9933 16.9635 47.5962 18.3446 48.5004 19.2454C49.4047 20.1461 50.6406 20.6866 52.3889 20.6866C53.6851 20.6866 54.8305 20.2062 55.7047 19.5757C55.976 19.3655 56.2774 19.2454 56.5788 19.2454C57.2118 19.2454 57.7243 19.8159 57.7243 20.4164C57.7243 20.7767 57.6037 21.0769 57.3023 21.3471C56.0362 22.398 54.2578 22.9685 52.3286 22.9685C47.6564 22.9685 44.3105 19.6057 44.3105 15.162ZM54.9812 10.8384C54.1372 9.99767 53.0521 9.57732 51.7559 9.57732C50.4598 9.57732 49.254 10.0877 48.3799 10.9585C47.6866 11.6491 47.2043 12.5498 47.2043 13.1503C47.2043 13.4506 47.3852 13.5707 47.777 13.5707H55.6142C55.976 13.5707 56.1568 13.4506 56.1568 13.1503C56.1568 12.4297 55.5841 11.4389 54.9812 10.8384Z" fill="#23A47F" style="fill:#23A47F;fill:color(display-p3 0.1373 0.6431 0.4980);fill-opacity:1;"/>
<path d="M73.9411 22.8184C73.2176 22.8184 72.6449 22.2479 72.6449 21.5273V13.3605C72.6449 11.2287 70.9569 9.60735 68.7866 9.60735C66.5861 9.60735 64.8981 11.2587 64.8981 13.3605V21.5273C64.8981 22.2479 64.3254 22.8184 63.602 22.8184C62.9087 22.8184 62.3359 22.2479 62.3359 21.5273V8.76665C62.3359 8.07607 62.9087 7.50559 63.5718 7.50559C64.8378 7.50559 64.7775 8.64655 65.4407 8.64655C66.1038 8.64655 67.0081 7.35547 69.3593 7.35547C72.6449 7.35547 75.2071 10.0877 75.2071 13.3605V21.5273C75.2071 22.2479 74.6344 22.8184 73.9411 22.8184Z" fill="#23A47F" style="fill:#23A47F;fill:color(display-p3 0.1373 0.6431 0.4980);fill-opacity:1;"/>
<path d="M91.2433 22.819C90.5199 22.819 89.9471 22.2486 89.9471 21.528V13.3611C89.9471 11.2294 88.2591 9.60802 86.0888 9.60802C83.8884 9.60802 82.2004 11.2594 82.2004 13.3611V21.528C82.2004 22.2486 81.6276 22.819 80.9042 22.819C80.2109 22.819 79.6382 22.2486 79.6382 21.528V1.29108C79.6382 0.570476 80.2109 0 80.9042 0C81.6276 0 82.2004 0.570476 82.2004 1.29108V7.92661C82.2004 8.28691 82.3511 8.49709 82.7429 8.49709C83.4061 8.49709 84.3104 7.35614 86.6615 7.35614C89.9471 7.35614 92.5093 10.0884 92.5093 13.3611V21.528C92.5093 22.2486 91.9366 22.819 91.2433 22.819Z" fill="#23A47F" style="fill:#23A47F;fill:color(display-p3 0.1373 0.6431 0.4980);fill-opacity:1;"/>
<path d="M96.0332 15.162C96.0332 10.8083 99.5298 7.35547 103.931 7.35547C108.332 7.35547 111.828 10.8083 111.828 15.162C111.828 19.5156 108.332 22.9685 103.931 22.9685C99.5328 22.9685 96.0332 19.5156 96.0332 15.162ZM109.269 15.162C109.269 12.1295 107.008 9.63737 103.934 9.63737C100.889 9.63737 98.6285 12.1295 98.6285 15.162C98.6285 18.1945 100.889 20.6866 103.934 20.6866C107.008 20.6866 109.269 18.1945 109.269 15.162Z" fill="#23A47F" style="fill:#23A47F;fill:color(display-p3 0.1373 0.6431 0.4980);fill-opacity:1;"/>
<path d="M116.621 7.50586C117.344 7.50586 117.917 8.07634 117.917 8.79694V16.9638C117.917 19.0955 119.605 20.7169 121.775 20.7169C123.976 20.7169 125.664 19.0655 125.664 16.9638V8.79694C125.664 8.07634 126.237 7.50586 126.96 7.50586C127.653 7.50586 128.226 8.07634 128.226 8.79694V21.5576C128.226 22.2482 127.653 22.8186 126.99 22.8186C125.724 22.8186 125.785 21.6777 125.121 21.6777C124.458 21.6777 123.554 22.9688 121.203 22.9688C117.917 22.9688 115.355 20.2365 115.355 16.9638V8.79694C115.358 8.07634 115.928 7.50586 116.621 7.50586Z" fill="#23A47F" style="fill:#23A47F;fill:color(display-p3 0.1373 0.6431 0.4980);fill-opacity:1;"/>
<path d="M132.778 21.8576C132.205 21.4973 131.813 21.137 131.813 20.4464C131.813 19.7858 132.325 19.2754 132.958 19.2754C133.712 19.2754 134.044 19.7258 134.677 20.0561C135.46 20.5064 136.365 20.7466 137.48 20.7466C139.53 20.7466 140.555 19.8159 140.555 18.6749C140.555 17.0536 139.047 16.7533 136.998 16.2129C134.466 15.5523 132.024 14.8017 132.024 11.8893C132.024 9.3071 134.013 7.35547 137.54 7.35547C138.927 7.35547 140.223 7.71577 141.248 8.3463C141.61 8.55647 141.971 9.00685 141.971 9.51727C141.971 10.1778 141.429 10.7483 140.735 10.7483C140.283 10.7483 139.922 10.448 139.469 10.1478C139.017 9.84755 138.354 9.57732 137.45 9.57732C135.43 9.57732 134.556 10.448 134.556 11.619C134.556 13.1503 136.033 13.5106 138.143 14.021C140.615 14.6215 143.056 15.4022 143.056 18.3747C143.056 20.9568 141.127 22.9685 137.42 22.9685C135.611 22.9685 133.983 22.6082 132.778 21.8576Z" fill="#23A47F" style="fill:#23A47F;fill:color(display-p3 0.1373 0.6431 0.4980);fill-opacity:1;"/>
<path d="M145.468 15.162C145.468 10.6282 148.603 7.35547 152.913 7.35547C156.862 7.35547 159.997 10.2379 159.997 14.1712C159.997 15.1019 159.394 15.7325 158.52 15.7325H148.723C148.301 15.7325 148.151 15.8826 148.151 16.2129C148.151 16.9635 148.753 18.3446 149.658 19.2454C150.562 20.1461 151.798 20.6866 153.546 20.6866C154.842 20.6866 155.988 20.2062 156.862 19.5757C157.133 19.3655 157.435 19.2454 157.736 19.2454C158.369 19.2454 158.881 19.8159 158.881 20.4164C158.881 20.7767 158.761 21.0769 158.459 21.3471C157.193 22.398 155.415 22.9685 153.486 22.9685C148.817 22.9685 145.468 19.6057 145.468 15.162ZM156.141 10.8384C155.297 9.99767 154.212 9.57732 152.916 9.57732C151.62 9.57732 150.414 10.0877 149.54 10.9585C148.847 11.6491 148.365 12.5498 148.365 13.1503C148.365 13.4506 148.545 13.5707 148.937 13.5707H156.774C157.136 13.5707 157.317 13.4506 157.317 13.1503C157.317 12.4297 156.744 11.4389 156.141 10.8384Z" fill="#23A47F" style="fill:#23A47F;fill:color(display-p3 0.1373 0.6431 0.4980);fill-opacity:1;"/>
</g>
<defs>
<clipPath id="clip0_5213_22905">
<rect width="160" height="35.7328" fill="white" style="fill:white;fill:white;fill-opacity:1;"/>
</clipPath>
</defs>
</svg>
