<svg width="54" height="42" viewBox="0 0 54 42" fill="none" xmlns="http://www.w3.org/2000/svg">
<g clip-path="url(#clip0_4170_64578)">
<path d="M40.0574 38.8087L32.4456 31.1949C32.2052 30.9592 31.882 30.8271 31.5453 30.8271C31.2086 30.8271 30.8854 30.9592 30.645 31.1949L23.0332 38.8087C22.8517 38.9818 22.7271 39.206 22.6762 39.4516C22.6252 39.6972 22.6502 39.9525 22.7479 40.1836C22.8456 40.4146 23.0113 40.6104 23.2229 40.745C23.4346 40.8795 23.6822 40.9464 23.9329 40.9367H39.1577C39.4069 40.943 39.6522 40.874 39.8616 40.7389C40.0711 40.6038 40.235 40.4087 40.3321 40.1791C40.4292 39.9495 40.4549 39.696 40.4059 39.4515C40.3569 39.2071 40.2354 38.9831 40.0574 38.8087Z" fill="#C3C6CC" style="fill:#C3C6CC;fill:color(display-p3 0.7647 0.7765 0.8000);fill-opacity:1;"/>
<path d="M40.311 11.4618L37.9266 4.38252C37.819 4.06237 37.6475 3.76743 37.4224 3.51562L0.293457 40.6469C0.51135 40.8419 0.795974 40.9456 1.08825 40.9363H11.6341C11.9288 40.9377 12.2209 40.881 12.4937 40.7693C12.7665 40.6576 13.0145 40.4932 13.2236 40.2855L39.8055 13.701C40.0944 13.4148 40.2955 13.0519 40.3851 12.6552C40.4746 12.2584 40.4489 11.8444 40.311 11.4618Z" fill="#E1E3E6" style="fill:#E1E3E6;fill:color(display-p3 0.8824 0.8902 0.9020);fill-opacity:1;"/>
<path d="M36.5542 3.00786L29.4757 0.624519C29.0931 0.486568 28.6791 0.460853 28.2824 0.55041C27.8857 0.639967 27.5228 0.841063 27.2366 1.13L0.653471 27.7144C0.2353 28.1376 0.00177199 28.7092 0.00399186 29.3041V39.851C-0.00529071 40.1433 0.0983306 40.4279 0.29335 40.6458L37.4223 3.51464C37.1702 3.28879 36.8749 3.11639 36.5542 3.00786Z" fill="#C3C6CC" style="fill:#C3C6CC;fill:color(display-p3 0.7647 0.7765 0.8000);fill-opacity:1;"/>
</g>
<defs>
<clipPath id="clip0_4170_64578">
<rect width="53.3865" height="40.5737" fill="white" style="fill:white;fill:white;fill-opacity:1;" transform="translate(0 0.499023)"/>
</clipPath>
</defs>
</svg>
