<svg width="16" height="17" viewBox="0 0 16 17" fill="none" xmlns="http://www.w3.org/2000/svg">
<path d="M4.90002 4.48281C4.69586 4.48281 4.52815 4.54844 4.3969 4.67969C4.26565 4.81094 4.20002 4.97865 4.20002 5.18281V12.1828C4.20002 12.387 4.26565 12.5547 4.3969 12.6859C4.52815 12.8172 4.69586 12.8828 4.90002 12.8828H11.9C12.1042 12.8828 12.2719 12.8172 12.4031 12.6859C12.5344 12.5547 12.6 12.387 12.6 12.1828V5.18281C12.6 4.97865 12.5344 4.81094 12.4031 4.67969C12.2719 4.54844 12.1042 4.48281 11.9 4.48281H4.90002ZM3.50002 5.18281C3.51461 4.78906 3.65315 4.46094 3.91565 4.19844C4.17815 3.93594 4.50627 3.7974 4.90002 3.78281H11.9C12.2938 3.7974 12.6219 3.93594 12.8844 4.19844C13.1469 4.46094 13.2854 4.78906 13.3 5.18281V12.1828C13.2854 12.5766 13.1469 12.9047 12.8844 13.1672C12.6219 13.4297 12.2938 13.5682 11.9 13.5828H4.90002C4.50627 13.5682 4.17815 13.4297 3.91565 13.1672C3.65315 12.9047 3.51461 12.5766 3.50002 12.1828V5.18281ZM10.0625 6.64844C9.88752 6.51719 9.71982 6.51719 9.5594 6.64844L9.10002 7.12969L9.97502 8.00469L10.4344 7.52344C10.5656 7.36302 10.5656 7.2026 10.4344 7.04219L10.0625 6.64844ZM6.80315 9.42656C6.74482 9.47031 6.70836 9.52135 6.69377 9.57969L6.43127 10.6516L7.50315 10.3891C7.56148 10.3745 7.61252 10.3453 7.65627 10.3016L9.4719 8.48594L8.5969 7.61094L6.78127 9.42656H6.80315ZM9.05627 6.16719C9.27502 5.96302 9.52294 5.86094 9.80002 5.86094C10.0771 5.86094 10.325 5.96302 10.5438 6.16719L10.9375 6.53906C11.1417 6.75781 11.2438 7.00573 11.2438 7.28281C11.2438 7.5599 11.1417 7.80781 10.9375 8.02656L8.1594 10.7828C8.02815 10.9286 7.86773 11.0234 7.67815 11.0672L6.03752 11.4828C5.90627 11.512 5.7969 11.4755 5.7094 11.3734C5.6219 11.2859 5.59273 11.1766 5.6219 11.0453L6.01565 9.40469C6.07398 9.22969 6.16877 9.06927 6.30002 8.92344L9.05627 6.16719Z" fill="white"/>
</svg>
