<svg width="25" height="17" viewBox="0 0 25 17" fill="none" xmlns="http://www.w3.org/2000/svg">
<g id="YouTube svg" clip-path="url(#clip0_2336_31230)">
<g id="g10">
<g id="g12">
<path id="path14" d="M23.9985 2.70604C23.7225 1.67024 22.9093 0.854595 21.8766 0.577774C20.005 0.074688 12.5 0.074688 12.5 0.074688C12.5 0.074688 4.99499 0.074688 3.12335 0.577774C2.09076 0.854595 1.27749 1.67024 1.00151 2.70604C0.5 4.58335 0.5 8.50023 0.5 8.50023C0.5 8.50023 0.5 12.4171 1.00151 14.2946C1.27749 15.3302 2.09076 16.1459 3.12335 16.4228C4.99499 16.9258 12.5 16.9258 12.5 16.9258C12.5 16.9258 20.005 16.9258 21.8766 16.4228C22.9093 16.1459 23.7225 15.3302 23.9985 14.2946C24.5 12.4171 24.5 8.50023 24.5 8.50023C24.5 8.50023 24.5 4.58335 23.9985 2.70604Z" fill="#ED1D24"/>
<path id="path16" d="M10.0454 12.0566L16.3181 8.50058L10.0454 4.94419V12.0566Z" fill="white"/>
</g>
</g>
</g>
<defs>
<clipPath id="clip0_2336_31230">
<rect width="24" height="16.8511" fill="white" transform="translate(0.5 0.0742188)"/>
</clipPath>
</defs>
</svg>
