<svg width="111" height="141" viewBox="0 0 111 141" fill="none" xmlns="http://www.w3.org/2000/svg">
<path d="M109.8 139.682C97.1855 137.58 61.1292 131.997 60.1999 112.482C59.8132 104.362 63.8815 92.9964 70.6 87.771C85.0279 76.5495 108.975 91.5211 89.0888 105.193C77.936 112.861 62.0009 106.642 50.7777 102.082C34.234 95.3613 26.3564 82.2237 19.4888 66.6155C16.0011 58.6889 8.22798 18.4962 10.5999 19.6822" stroke="#E7A500" stroke-width="2" stroke-linecap="round"/>
<path d="M5.80005 5.28221C8.19761 6.58755 26.2313 17.1732 24.2 15.5933C21.5414 13.5254 18.5849 11.6671 16.2 9.28216C13.3785 6.46056 9.88931 4.39375 7.40002 1.28215C5.21568 -1.44828 1 16.4583 1 19.6822" stroke="#E7A500" stroke-width="2" stroke-linecap="round"/>
</svg>
