<svg width="32" height="32" viewBox="0 0 32 32" fill="none" xmlns="http://www.w3.org/2000/svg">
<path d="M20.9842 6.97559C20.1151 6.14359 19.0162 5.58167 17.886 5.20535C17.8783 5.20535 17.861 5.19767 17.8348 5.19127C16.8101 4.91671 15.7312 4.91671 14.7065 5.19127C14.6809 5.19767 14.6636 5.20279 14.6559 5.20535C13.525 5.58167 12.4268 6.14359 11.5577 6.97559C8.97014 9.43575 9.39062 13.901 11.9103 16.2556C12.6143 16.9167 12.9273 17.7698 13.1442 18.71C13.2082 18.9935 13.5839 21.9484 13.4533 21.9484H19.0853C18.9541 21.9484 19.3292 18.9935 19.3945 18.71C19.6108 17.7698 19.9212 16.918 20.6284 16.2556C23.1513 13.8978 23.5711 9.43255 20.9842 6.97559Z" fill="#F9BB0D"/>
<path d="M15.2575 18.7087C15.0412 17.7685 14.7308 16.9167 14.0242 16.2543C11.5039 13.8984 11.0841 9.43317 13.6716 6.97429C14.5407 6.14421 15.6389 5.58229 16.7679 5.20597C16.7749 5.20597 16.7929 5.19829 16.8185 5.19189C16.9861 5.14645 17.1557 5.11189 17.326 5.08181C16.4538 4.92575 15.558 4.96333 14.702 5.19189C14.6764 5.19829 14.6591 5.20341 14.6514 5.20597C13.525 5.58229 12.4268 6.14421 11.5577 6.97621C8.97014 9.43637 9.39062 13.9016 11.9103 16.2562C12.6143 16.9173 12.9273 17.7704 13.1442 18.7106C13.2082 18.9941 13.5839 21.949 13.4533 21.949H15.5653C15.6978 21.9471 15.3228 18.9922 15.2575 18.7087Z" fill="#FFD44D"/>
<path d="M16.2707 21.9463V15.0555L17.4867 14.3559C17.5755 14.3046 17.6471 14.228 17.6923 14.1358C17.7375 14.0437 17.7544 13.9402 17.7407 13.8385C17.7269 13.7368 17.6833 13.6414 17.6153 13.5646C17.5473 13.4877 17.458 13.4328 17.3587 13.4068L15.1513 12.8244C15.0688 12.8025 14.9952 12.7556 14.9404 12.6901C14.8857 12.6247 14.8525 12.5439 14.8455 12.4588C14.8385 12.3738 14.858 12.2887 14.9013 12.2151C14.9446 12.1416 15.0096 12.0832 15.0873 12.0481L16.272 11.515V9.17578" stroke="#FEFEFE" stroke-width="0.128" stroke-linecap="round" stroke-linejoin="round"/>
<path d="M19.6479 21.9586C19.6479 22.2728 19.4777 22.5276 19.2684 22.5276H13.0738C12.8645 22.5276 12.6949 22.2716 12.6949 21.9586C12.6949 21.6444 12.8645 21.3896 13.0738 21.3896H19.2697C19.4789 21.3896 19.6492 21.6456 19.6492 21.9586H19.6479Z" fill="#24285B"/>
<path d="M19.6479 23.0953C19.6479 23.4096 19.4777 23.6643 19.2684 23.6643H13.0738C12.8645 23.6643 12.6949 23.4083 12.6949 23.0953C12.6949 22.7811 12.8645 22.5264 13.0738 22.5264H19.2697C19.4789 22.5264 19.6492 22.7824 19.6492 23.0953H19.6479Z" fill="#24285B"/>
<path d="M19.6479 24.2644C19.6479 24.5965 19.4777 24.8653 19.2684 24.8653H13.0738C12.8645 24.8653 12.6949 24.5965 12.6949 24.2644C12.6949 23.9329 12.8645 23.6641 13.0738 23.6641H19.2697C19.4789 23.6641 19.6492 23.9329 19.6492 24.2644H19.6479Z" fill="#24285B"/>
<path d="M16.1722 27.0787C16.759 27.0787 17.3218 26.8456 17.7367 26.4307C18.1516 26.0157 18.3847 25.453 18.3847 24.8662H13.9591C13.9593 25.4531 14.1925 26.0158 14.6075 26.4307C15.0226 26.8456 15.5854 27.0787 16.1722 27.0787Z" fill="#24285B"/>
<path d="M26.5067 9.66729V9.15977C26.5067 9.05373 26.4208 8.96777 26.3147 8.96777H23.932C23.826 8.96777 23.74 9.05373 23.74 9.15977V9.66729C23.74 9.77333 23.826 9.85929 23.932 9.85929H26.3147C26.4208 9.85929 26.5067 9.77333 26.5067 9.66729Z" fill="#F9BB0D"/>
<path d="M25.5087 5.8468L25.2252 5.42585C25.1659 5.3379 25.0466 5.31462 24.9587 5.37386L22.9824 6.70488C22.8944 6.76411 22.8711 6.88343 22.9304 6.97138L23.2139 7.39233C23.2731 7.48028 23.3924 7.50356 23.4804 7.44433L25.4567 6.11331C25.5446 6.05407 25.5679 5.93475 25.5087 5.8468Z" fill="#F9BB0D"/>
<path d="M8.60339 9.67511V9.16759C8.60339 9.06155 8.51743 8.97559 8.41139 8.97559H6.02867C5.92263 8.97559 5.83667 9.06155 5.83667 9.16759V9.67511C5.83667 9.78114 5.92263 9.86711 6.02867 9.86711H8.41139C8.51743 9.86711 8.60339 9.78114 8.60339 9.67511Z" fill="#F9BB0D"/>
<path d="M9.1295 7.40051L9.41301 6.97956C9.47224 6.89161 9.44896 6.77229 9.36101 6.71306L7.38472 5.38204C7.29677 5.3228 7.17745 5.34608 7.11822 5.43403L6.83471 5.85499C6.77547 5.94294 6.79875 6.06225 6.8867 6.12149L8.863 7.45251C8.95095 7.51174 9.07027 7.48847 9.1295 7.40051Z" fill="#F9BB0D"/>
</svg>
