<svg width="120" height="29" viewBox="0 0 120 29" fill="none" xmlns="http://www.w3.org/2000/svg">
<path d="M23.6132 12.9891C20.3976 12.1834 18.7861 11.788 17.6745 10.6763C16.5628 9.55719 16.1674 7.95314 15.3616 4.73756L14.1754 0L12.9891 4.73756C12.1834 7.95314 11.7879 9.56465 10.6763 10.6763C9.55719 11.788 7.95313 12.1834 4.73756 12.9891L0 14.1754L4.73756 15.3616C7.95313 16.1674 9.56465 16.5628 10.6763 17.6745C11.7879 18.7936 12.1834 20.3976 12.9891 23.6132L14.1754 28.3508L15.3616 23.6132C16.1674 20.3976 16.5628 18.7861 17.6745 17.6745C18.7936 16.5628 20.3976 16.1674 23.6132 15.3616L28.3507 14.1754L23.6132 12.9891Z" fill="#FF6224"/>
<path d="M38.1568 22.814C37.1562 22.814 36.2222 22.6361 35.355 22.2804C34.5101 21.9024 33.8208 21.3576 33.2871 20.646C32.7757 19.9122 32.52 19.0006 32.52 17.911C32.52 16.3545 33.0648 15.1093 34.1543 14.1754C35.2661 13.2415 36.9004 12.7745 39.0573 12.7745H43.7269V12.3409C43.7269 11.3625 43.4489 10.6732 42.893 10.273C42.3594 9.87274 41.2698 9.67262 39.6243 9.67262C37.8232 9.67262 36.0888 9.95056 34.4211 10.5065V7.33785C35.1549 7.04878 36.0444 6.8153 37.0894 6.63741C38.1568 6.43729 39.313 6.33723 40.5582 6.33723C42.9375 6.33723 44.7719 6.82642 46.0616 7.8048C47.3735 8.76094 48.0295 10.3063 48.0295 12.441V22.4805H44.1271L43.8936 21.0463C43.271 21.6022 42.5039 22.0358 41.5922 22.3471C40.6805 22.6584 39.5354 22.814 38.1568 22.814ZM39.3909 19.8455C40.3915 19.8455 41.2587 19.6788 41.9925 19.3452C42.7262 19.0117 43.3044 18.5892 43.7269 18.0778V15.5762H39.1574C37.4007 15.5762 36.5224 16.2989 36.5224 17.7442C36.5224 19.1451 37.4786 19.8455 39.3909 19.8455Z" fill="#2F3941"/>
<path d="M58.6597 28.3508C57.4812 28.3508 56.2694 28.2729 55.0242 28.1173C53.8012 27.9616 52.7672 27.7393 51.9223 27.4502V24.0815C52.8117 24.3705 53.8568 24.5929 55.0575 24.7486C56.2582 24.9264 57.3812 25.0154 58.4262 25.0154C59.9605 25.0154 61.0723 24.9264 61.7616 24.7486C62.4509 24.5929 62.7956 24.3038 62.7956 23.8814C62.7956 23.5256 62.6399 23.281 62.3286 23.1476C62.0396 23.0142 61.417 22.9474 60.4608 22.9474H56.1582C53.3342 22.9474 51.9223 21.9024 51.9223 19.8122C51.9223 19.1673 52.1001 18.5781 52.4559 18.0444C52.8117 17.5108 53.3787 17.0883 54.157 16.777C52.3559 15.8653 51.4553 14.331 51.4553 12.1742C51.4553 10.1285 52.089 8.64976 53.3565 7.73809C54.6239 6.80418 56.5028 6.33723 58.9933 6.33723C59.5047 6.33723 60.0606 6.3817 60.661 6.47065C61.2836 6.53735 61.7505 6.60406 62.0618 6.67077H67.9988L67.8987 9.50585H65.3972C66.0865 10.1507 66.4312 11.0512 66.4312 12.2075C66.4312 13.8307 65.9197 15.1315 64.8969 16.1099C63.874 17.066 62.362 17.5441 60.3608 17.5441C60.005 17.5441 59.6603 17.533 59.3268 17.5108C59.0155 17.4663 58.6931 17.4218 58.3595 17.3774C57.6925 17.4663 57.1254 17.6219 56.6585 17.8443C56.2138 18.0667 55.9914 18.3669 55.9914 18.7449C55.9914 19.2563 56.4473 19.512 57.3589 19.512H61.8283C63.4293 19.512 64.6634 19.8789 65.5306 20.6127C66.3978 21.3242 66.8314 22.3693 66.8314 23.7479C66.8314 25.3045 66.131 26.4607 64.7301 27.2167C63.3293 27.9728 61.3058 28.3508 58.6597 28.3508ZM59.0266 15.0092C60.3608 15.0092 61.2836 14.7869 61.795 14.3422C62.3286 13.8752 62.5955 13.0969 62.5955 12.0074C62.5955 10.9178 62.3286 10.1285 61.795 9.63926C61.2836 9.15007 60.3608 8.90548 59.0266 8.90548C57.7592 8.90548 56.8475 9.15007 56.2916 9.63926C55.7357 10.1062 55.4578 10.8956 55.4578 12.0074C55.4578 13.0302 55.7135 13.7863 56.2249 14.2754C56.7586 14.7646 57.6925 15.0092 59.0266 15.0092Z" fill="#2F3941"/>
<path d="M75.4542 22.814C73.9199 22.814 72.797 22.4583 72.0854 21.7467C71.3961 21.0352 71.0514 19.9011 71.0514 18.3446V0H75.5542V17.9777C75.5542 18.5336 75.6654 18.9227 75.8878 19.1451C76.1101 19.3452 76.4325 19.4453 76.855 19.4453C77.4331 19.4453 77.9557 19.3675 78.4226 19.2118V22.3137C77.5777 22.6473 76.5882 22.814 75.4542 22.814Z" fill="#2F3941"/>
<path d="M81.2476 3.76898V0.233476H86.1506V3.76898H81.2476ZM81.6144 22.4805V10.0062H79.2463L79.6466 6.67077H86.1172V22.4805H81.6144Z" fill="#2F3941"/>
<path d="M90.2846 22.4805V6.67077H94.4538L94.6206 8.17169C95.2655 7.6825 96.0771 7.26002 97.0554 6.90425C98.0561 6.52624 99.1011 6.33723 100.191 6.33723C102.281 6.33723 103.804 6.82642 104.76 7.8048C105.716 8.78318 106.194 10.2952 106.194 12.3409V22.4805H101.692V12.5744C101.692 11.5071 101.469 10.7511 101.025 10.3063C100.602 9.86162 99.8016 9.63926 98.6231 9.63926C97.9338 9.63926 97.2333 9.79491 96.5218 10.1062C95.8325 10.4175 95.2543 10.8066 94.7874 11.2736V22.4805H90.2846Z" fill="#2F3941"/>
<path d="M116.464 22.814C114.641 22.814 113.285 22.336 112.395 21.3798C111.528 20.4237 111.095 19.1229 111.095 17.4774V10.1396H108.86V6.67077H111.095V3.26868L115.597 1.93452V6.67077H119.6L119.333 10.1396H115.597V17.1772C115.597 18.0444 115.797 18.6448 116.198 18.9783C116.598 19.2896 117.221 19.4453 118.065 19.4453C118.688 19.4453 119.333 19.3341 120 19.1118V22.2137C119.511 22.4138 118.977 22.5583 118.399 22.6473C117.821 22.7584 117.176 22.814 116.464 22.814Z" fill="#2F3941"/>
</svg>
