<svg width="25" height="25" viewBox="0 0 25 25" fill="none" xmlns="http://www.w3.org/2000/svg">
<g id="Facebook svg" clip-path="url(#clip0_2336_31242)">
<g id="g10">
<g id="g12">
<path id="path14" d="M24.5 12.4993C24.5 5.87187 19.1274 0.499294 12.5 0.499294C5.87258 0.499294 0.5 5.87187 0.5 12.4993C0.5 18.4888 4.88823 23.4533 10.625 24.3535V15.968H7.57813V12.4993H10.625V9.85554C10.625 6.84805 12.4165 5.18679 15.1576 5.18679C16.4705 5.18679 17.8438 5.42117 17.8438 5.42117V8.37429H16.3306C14.8399 8.37429 14.375 9.2993 14.375 10.2483V12.4993H17.7031L17.1711 15.968H14.375V24.3535C20.1118 23.4533 24.5 18.4888 24.5 12.4993Z" fill="#1877F2"/>
<path id="path16" d="M17.1711 15.9668L17.7031 12.498H14.375V10.247C14.375 9.29805 14.8399 8.37305 16.3306 8.37305H17.8438V5.41992C17.8438 5.41992 16.4705 5.18555 15.1576 5.18555C12.4165 5.18555 10.625 6.8468 10.625 9.8543V12.498H7.57812V15.9668H10.625V24.3523C11.2359 24.4481 11.8621 24.498 12.5 24.498C13.1379 24.498 13.7641 24.4481 14.375 24.3523V15.9668H17.1711Z" fill="white"/>
</g>
</g>
</g>
<defs>
<clipPath id="clip0_2336_31242">
<rect width="24" height="24" fill="white" transform="translate(0.5 0.5)"/>
</clipPath>
</defs>
</svg>
